<mxfile host="drawio-plugin" modified="2024-04-19T11:39:54.269Z" agent="5.0 (Windows NT 10.0; Win64; x64) AppleWebKit/537.36 (KHTML, like Gecko) Chrome/111.0.0.0 Safari/537.36" etag="3QzcSYwrr3Ltb66a26c8" version="20.5.3" type="embed"><diagram id="23iRSUPoRavnBvh4doch" name="Page-1"><mxGraphModel dx="1000" dy="721" grid="1" gridSize="17" guides="1" tooltips="1" connect="1" arrows="1" fold="1" page="1" pageScale="1" pageWidth="827" pageHeight="1169" background="#FFFFFF" math="0" shadow="0"><root><mxCell id="0"/><mxCell id="1" parent="0"/><mxCell id="2" value="БД&lt;br&gt;PostgreSQL" style="rounded=0;whiteSpace=wrap;html=1;fillColor=#FFFFFF;strokeColor=#909090;fontColor=#1A1A1A;" parent="1" vertex="1"><mxGeometry x="352" y="307" width="120" height="60" as="geometry"/></mxCell><mxCell id="3" value="Файловое хранилище&lt;br&gt;(MongoDB)" style="rounded=0;whiteSpace=wrap;html=1;fillColor=#FFFFFF;strokeColor=#909090;fontColor=#1A1A1A;" parent="1" vertex="1"><mxGeometry x="352" y="187" width="120" height="60" as="geometry"/></mxCell><mxCell id="4" value="REST&lt;br&gt;WebApi" style="rounded=0;whiteSpace=wrap;html=1;fillColor=#FFFFFF;strokeColor=#909090;fontColor=#1A1A1A;" parent="1" vertex="1"><mxGeometry x="352" y="467" width="120" height="60" as="geometry"/></mxCell><mxCell id="5" value="WebSockets&lt;br&gt;SignalR" style="rounded=0;whiteSpace=wrap;html=1;fillColor=#FFFFFF;strokeColor=#909090;fontColor=#1A1A1A;" parent="1" vertex="1"><mxGeometry x="352" y="627" width="120" height="60" as="geometry"/></mxCell><mxCell id="7" value="Веб-бразуер&lt;br&gt;Blazor&lt;br&gt;Webassembly" style="rounded=0;whiteSpace=wrap;html=1;fillColor=#FFFFFF;strokeColor=#909090;fontColor=#1A1A1A;" parent="1" vertex="1"><mxGeometry x="102" y="467" width="120" height="60" as="geometry"/></mxCell><mxCell id="13" value="MessageBroker&lt;br&gt;RabbitMQ" style="rounded=0;whiteSpace=wrap;html=1;fillColor=#FFFFFF;strokeColor=#909090;fontColor=#1A1A1A;" parent="1" vertex="1"><mxGeometry x="572" y="467" width="120" height="60" as="geometry"/></mxCell><mxCell id="15" value="" style="endArrow=classic;startArrow=classic;html=1;rounded=0;entryX=0.5;entryY=1;entryDx=0;entryDy=0;exitX=0.5;exitY=0;exitDx=0;exitDy=0;edgeStyle=orthogonalEdgeStyle;labelBackgroundColor=#EEEEEE;strokeColor=#182E3E;fontColor=#1A1A1A;" parent="1" source="5" target="4" edge="1"><mxGeometry width="50" height="50" relative="1" as="geometry"><mxPoint x="492" y="497" as="sourcePoint"/><mxPoint x="542" y="447" as="targetPoint"/></mxGeometry></mxCell><mxCell id="16" value="" style="endArrow=classic;startArrow=classic;html=1;rounded=0;entryX=0.5;entryY=1;entryDx=0;entryDy=0;exitX=1;exitY=0.5;exitDx=0;exitDy=0;edgeStyle=orthogonalEdgeStyle;labelBackgroundColor=#EEEEEE;strokeColor=#182E3E;fontColor=#1A1A1A;" parent="1" source="5" target="13" edge="1"><mxGeometry width="50" height="50" relative="1" as="geometry"><mxPoint x="492" y="497" as="sourcePoint"/><mxPoint x="542" y="447" as="targetPoint"/></mxGeometry></mxCell><mxCell id="17" value="" style="endArrow=classic;startArrow=classic;html=1;rounded=0;entryX=1;entryY=0.5;entryDx=0;entryDy=0;exitX=0;exitY=0.5;exitDx=0;exitDy=0;labelBackgroundColor=#EEEEEE;strokeColor=#182E3E;fontColor=#1A1A1A;" parent="1" source="4" target="7" edge="1"><mxGeometry width="50" height="50" relative="1" as="geometry"><mxPoint x="492" y="487" as="sourcePoint"/><mxPoint x="542" y="437" as="targetPoint"/></mxGeometry></mxCell><mxCell id="18" value="" style="endArrow=classic;startArrow=classic;html=1;rounded=0;exitX=1;exitY=0.5;exitDx=0;exitDy=0;entryX=0;entryY=0.5;entryDx=0;entryDy=0;edgeStyle=orthogonalEdgeStyle;labelBackgroundColor=#EEEEEE;strokeColor=#182E3E;fontColor=#1A1A1A;" parent="1" source="4" target="13" edge="1"><mxGeometry width="50" height="50" relative="1" as="geometry"><mxPoint x="492" y="497" as="sourcePoint"/><mxPoint x="542" y="447" as="targetPoint"/></mxGeometry></mxCell><mxCell id="19" value="" style="endArrow=classic;startArrow=classic;html=1;rounded=0;entryX=0.5;entryY=1;entryDx=0;entryDy=0;edgeStyle=orthogonalEdgeStyle;labelBackgroundColor=#EEEEEE;strokeColor=#182E3E;fontColor=#1A1A1A;" parent="1" source="4" target="2" edge="1"><mxGeometry width="50" height="50" relative="1" as="geometry"><mxPoint x="492" y="487" as="sourcePoint"/><mxPoint x="542" y="437" as="targetPoint"/></mxGeometry></mxCell><mxCell id="20" value="" style="endArrow=classic;startArrow=classic;html=1;rounded=0;entryX=0.5;entryY=1;entryDx=0;entryDy=0;exitX=0;exitY=0.5;exitDx=0;exitDy=0;edgeStyle=orthogonalEdgeStyle;labelBackgroundColor=#EEEEEE;strokeColor=#182E3E;fontColor=#1A1A1A;" parent="1" source="5" target="7" edge="1"><mxGeometry width="50" height="50" relative="1" as="geometry"><mxPoint x="492" y="477" as="sourcePoint"/><mxPoint x="542" y="427" as="targetPoint"/></mxGeometry></mxCell><mxCell id="22" value="" style="endArrow=classic;startArrow=classic;html=1;rounded=0;entryX=0;entryY=0.5;entryDx=0;entryDy=0;exitX=0.5;exitY=0;exitDx=0;exitDy=0;edgeStyle=orthogonalEdgeStyle;labelBackgroundColor=#EEEEEE;strokeColor=#182E3E;fontColor=#1A1A1A;" parent="1" source="7" target="3" edge="1"><mxGeometry width="50" height="50" relative="1" as="geometry"><mxPoint x="152" y="297" as="sourcePoint"/><mxPoint x="202" y="247" as="targetPoint"/></mxGeometry></mxCell></root></mxGraphModel></diagram></mxfile>